<svg width="36" height="36" viewBox="0 0 36 36" fill="none" xmlns="http://www.w3.org/2000/svg">
<g clip-path="url(#clip0_53_12)">
<path d="M27 12C28.1935 12 29.3381 12.4741 30.182 13.318C31.0259 14.1619 31.5 15.3065 31.5 16.5C31.5 17.6935 31.0259 18.8381 30.182 19.682C29.3381 20.5259 28.1935 21 27 21" stroke="white" stroke-width="2.25" stroke-linecap="round" stroke-linejoin="round"/>
<path d="M15 12V28.5C15 28.8978 14.842 29.2794 14.5607 29.5607C14.2794 29.842 13.8978 30 13.5 30H12C11.6022 30 11.2206 29.842 10.9393 29.5607C10.658 29.2794 10.5 28.8978 10.5 28.5V21" stroke="white" stroke-width="2.25" stroke-linecap="round" stroke-linejoin="round"/>
<path d="M18 12L24.786 6.34498C24.9832 6.18074 25.2231 6.07611 25.4776 6.04334C25.7321 6.01057 25.9907 6.05102 26.2231 6.15996C26.4554 6.26889 26.6519 6.4418 26.7895 6.65841C26.9271 6.87502 27.0001 7.12636 27 7.38298V25.617C27.0001 25.8736 26.9271 26.1249 26.7895 26.3416C26.6519 26.5582 26.4554 26.7311 26.2231 26.84C25.9907 26.9489 25.7321 26.9894 25.4776 26.9566C25.2231 26.9239 24.9832 26.8192 24.786 26.655L18 21H6C5.60218 21 5.22064 20.8419 4.93934 20.5606C4.65804 20.2793 4.5 19.8978 4.5 19.5V13.5C4.5 13.1022 4.65804 12.7206 4.93934 12.4393C5.22064 12.158 5.60218 12 6 12H18Z" stroke="white" stroke-width="2.25" stroke-linecap="round" stroke-linejoin="round"/>
</g>
<defs>
<clipPath id="clip0_53_12">
<rect width="36" height="36" fill="white"/>
</clipPath>
</defs>
</svg>
