<?xml version="1.0" encoding="utf-8"?>
<!-- Generator: Adobe Illustrator 16.0.0, SVG Export Plug-In . SVG Version: 6.00 Build 0)  -->
<!DOCTYPE svg PUBLIC "-//W3C//DTD SVG 1.1//EN" "http://www.w3.org/Graphics/SVG/1.1/DTD/svg11.dtd">
<svg version="1.1" id="_x3C_레이어_x3E_" xmlns="http://www.w3.org/2000/svg" xmlns:xlink="http://www.w3.org/1999/xlink"
	 x="0px" y="0px" width="42.414px" height="39.501px" viewBox="0 0 42.414 39.501" enable-background="new 0 0 42.414 39.501"
	 xml:space="preserve">
<g>
	<g>
		<path fill="#915D2D" d="M12.857,7.536c-0.332-2.978-2.829-5.302-5.895-5.302C3.669,2.234,1,4.903,1,8.195
			c0,2.966,2.171,5.407,5.008,5.866C7.592,11.366,9.97,9.116,12.857,7.536z"/>
		<path fill="#915D2D" d="M29.557,7.536c0.333-2.978,2.829-5.302,5.896-5.302c3.292,0,5.962,2.669,5.962,5.961
			c0,2.966-2.171,5.407-5.008,5.866C34.822,11.366,32.444,9.116,29.557,7.536z"/>
		<path fill="#313131" d="M6.008,15.061c-0.053,0-0.107-0.005-0.16-0.013C2.459,14.5,0,11.618,0,8.195
			c0-3.838,3.123-6.961,6.962-6.961c3.534,0,6.495,2.661,6.889,6.191c0.045,0.402-0.158,0.793-0.514,0.987
			c-2.748,1.505-4.984,3.633-6.467,6.155C6.688,14.876,6.358,15.061,6.008,15.061z M6.962,3.234C4.226,3.234,2,5.459,2,8.195
			c0,2.217,1.451,4.115,3.532,4.733c1.532-2.368,3.662-4.394,6.22-5.913C11.219,4.82,9.26,3.234,6.962,3.234z"/>
		<path fill="#313131" d="M36.406,15.061c-0.351,0-0.681-0.185-0.862-0.493c-1.482-2.522-3.719-4.65-6.467-6.154
			c-0.356-0.195-0.559-0.586-0.514-0.988c0.394-3.53,3.355-6.191,6.889-6.191c3.839,0,6.962,3.123,6.962,6.961
			c0,3.423-2.459,6.305-5.848,6.854C36.513,15.056,36.459,15.061,36.406,15.061z M30.662,7.015c2.559,1.52,4.688,3.545,6.221,5.913
			c2.081-0.618,3.532-2.517,3.532-4.733c0-2.735-2.226-4.961-4.962-4.961C33.154,3.234,31.195,4.82,30.662,7.015z"/>
	</g>
	<ellipse fill="#FFFFFF" cx="21.207" cy="20.423" rx="18.777" ry="16.844"/>
	<ellipse fill="#915D2D" cx="21.207" cy="20.423" rx="16.863" ry="16.844"/>
	<path fill="#313131" d="M21.207,38.267c-10.883,0-19.737-8.005-19.737-17.844c0-9.84,8.854-17.845,19.737-17.845
		c10.883,0,19.737,8.005,19.737,17.845C40.944,30.262,32.09,38.267,21.207,38.267z M21.207,4.579
		c-9.78,0-17.737,7.107-17.737,15.845c0,8.736,7.957,15.844,17.737,15.844s17.737-7.107,17.737-15.844
		C38.944,11.686,30.987,4.579,21.207,4.579z"/>
	<path fill="#313131" d="M21.207,35.07c-5.347,0-9.697-3.481-9.697-7.76s4.35-7.759,9.697-7.759s9.697,3.48,9.697,7.759
		S26.554,35.07,21.207,35.07z M21.207,21.551c-4.244,0-7.697,2.583-7.697,5.759s3.453,5.76,7.697,5.76s7.697-2.584,7.697-5.76
		S25.451,21.551,21.207,21.551z"/>
	<g>
		<path fill="#5D5D5D" d="M24.145,24.428c0,0.889-1.315,1.608-2.938,1.608s-2.938-0.72-2.938-1.608S24.145,23.54,24.145,24.428z"/>
		<path fill="#313131" d="M21.207,26.787c-2.102,0-3.688-1.014-3.688-2.358c0-0.351,0-1.417,3.688-1.417s3.688,1.066,3.688,1.417
			C24.895,25.773,23.309,26.787,21.207,26.787z M19.173,24.686c0.302,0.283,1.032,0.601,2.034,0.601s1.732-0.317,2.034-0.601
			C22.317,24.447,20.097,24.447,19.173,24.686z"/>
		<g>
			<path fill="#313131" d="M19.433,30.015c-0.877,0-1.772-0.348-2.46-1.035c-0.293-0.293-0.293-0.768,0-1.061s0.768-0.293,1.061,0
				c0.366,0.366,0.839,0.578,1.332,0.597c0.468,0.012,0.905-0.146,1.221-0.463c0.293-0.293,0.768-0.293,1.061,0s0.293,0.768,0,1.061
				C21.044,29.716,20.246,30.015,19.433,30.015z"/>
			<path fill="#313131" d="M23.228,30.015c-0.877,0-1.772-0.348-2.46-1.035c-0.293-0.293-0.293-0.768,0-1.061s0.768-0.293,1.061,0
				c0.366,0.366,0.839,0.578,1.332,0.597c0.477,0.012,0.906-0.146,1.221-0.463c0.293-0.293,0.768-0.293,1.061,0s0.293,0.768,0,1.061
				C24.839,29.716,24.041,30.015,23.228,30.015z"/>
		</g>
		<path fill="#313131" d="M21.207,29.333c-0.414,0-0.75-0.336-0.75-0.75v-2.547c0-0.414,0.336-0.75,0.75-0.75s0.75,0.336,0.75,0.75
			v2.547C21.957,28.998,21.621,29.333,21.207,29.333z"/>
	</g>
	<circle fill="#3F3F3F" cx="28.779" cy="18.631" r="1.792"/>
	<path fill="#313131" d="M28.779,20.923c-1.264,0-2.292-1.028-2.292-2.292s1.028-2.292,2.292-2.292s2.292,1.028,2.292,2.292
		S30.042,20.923,28.779,20.923z M28.779,17.339c-0.712,0-1.292,0.58-1.292,1.292s0.58,1.292,1.292,1.292
		c0.712,0,1.292-0.58,1.292-1.292S29.491,17.339,28.779,17.339z"/>
	<circle fill="#FFFFFF" cx="28.264" cy="18.199" r="0.48"/>
	<circle fill="#3F3F3F" cx="13.635" cy="18.631" r="1.792"/>
	<path fill="#313131" d="M13.635,20.923c-1.264,0-2.292-1.028-2.292-2.292s1.028-2.292,2.292-2.292s2.292,1.028,2.292,2.292
		S14.899,20.923,13.635,20.923z M13.635,17.339c-0.712,0-1.292,0.58-1.292,1.292s0.58,1.292,1.292,1.292s1.292-0.58,1.292-1.292
		S14.347,17.339,13.635,17.339z"/>
	<circle fill="#FFFFFF" cx="13.121" cy="18.199" r="0.48"/>
</g>
</svg>
