<?xml version="1.0" encoding="utf-8"?>
<!-- Generator: Adobe Illustrator 16.0.0, SVG Export Plug-In . SVG Version: 6.00 Build 0)  -->
<!DOCTYPE svg PUBLIC "-//W3C//DTD SVG 1.1//EN" "http://www.w3.org/Graphics/SVG/1.1/DTD/svg11.dtd">
<svg version="1.1" id="_x3C_레이어_x3E_" xmlns="http://www.w3.org/2000/svg" xmlns:xlink="http://www.w3.org/1999/xlink"
	 x="0px" y="0px" width="46.428px" height="38.963px" viewBox="0 0 46.428 38.963" enable-background="new 0 0 46.428 38.963"
	 xml:space="preserve">
<g>
	<path fill="#313131" d="M13.417,38.963c-0.211,0-0.424-0.066-0.604-0.204c-0.439-0.334-0.524-0.962-0.19-1.401l3.606-4.742
		c0.333-0.439,0.962-0.524,1.401-0.19s0.524,0.962,0.19,1.401l-3.606,4.742C14.018,38.828,13.719,38.963,13.417,38.963z"/>
	<path fill="#313131" d="M20.174,38.963c-0.211,0-0.424-0.066-0.604-0.204c-0.439-0.334-0.524-0.962-0.19-1.401l3.606-4.742
		c0.334-0.439,0.962-0.524,1.401-0.19s0.524,0.962,0.19,1.401l-3.606,4.742C20.774,38.828,20.476,38.963,20.174,38.963z"/>
	<path fill="#313131" d="M27.768,38.963H7.552c-0.553,0-1-0.447-1-1s0.447-1,1-1h20.216c0.553,0,1,0.447,1,1
		S28.32,38.963,27.768,38.963z"/>
	<path fill="#FFDA44" d="M16.013,1.538c-3.17,0-5.74,3.213-5.74,7.175v10.763h11.479V8.712C21.752,4.75,19.183,1.538,16.013,1.538z"
		/>
	<path fill="#FFDA44" d="M21.978,34.1c6.462,0,11.7-6.548,11.7-14.625h-23.4C10.277,27.552,15.516,34.1,21.978,34.1z"/>
	<polygon fill="#F85A55" points="7.552,7.039 1,10.506 7.347,12.852 	"/>
	<path fill="#313131" d="M21.978,35.1c-2.811,0-5.566-0.755-7.971-2.184c-0.475-0.281-0.631-0.896-0.349-1.37
		s0.896-0.633,1.37-0.349c2.095,1.244,4.498,1.902,6.949,1.902c7.178,0,13.076-5.577,13.59-12.625H21.696c-0.553,0-1-0.447-1-1
		V8.712c0-3.404-2.77-6.175-6.175-6.175S8.347,5.308,8.347,8.712v10.654c0.004,0.036,0.006,0.072,0.006,0.108
		c0,2.647,0.76,5.213,2.196,7.42c0.302,0.463,0.171,1.083-0.292,1.384c-0.466,0.301-1.083,0.17-1.384-0.292
		c-1.629-2.502-2.499-5.404-2.521-8.4c-0.004-0.036-0.006-0.073-0.006-0.111V8.712c0-4.508,3.667-8.175,8.175-8.175
		s8.175,3.667,8.175,8.175v9.763h13.907c0.553,0,1,0.447,1,1C37.604,28.09,30.594,35.1,21.978,35.1z"/>
	<path fill="#313131" d="M7.347,13.852c-0.117,0-0.234-0.021-0.347-0.063l-6.347-2.346c-0.37-0.137-0.625-0.478-0.651-0.871
		s0.182-0.766,0.53-0.95l6.552-3.468C7.398,5.988,7.78,6.002,8.083,6.191c0.302,0.189,0.48,0.526,0.468,0.883l-0.205,5.813
		c-0.011,0.321-0.176,0.616-0.442,0.795C7.736,13.794,7.542,13.852,7.347,13.852z M3.444,10.344l2.952,1.091l0.095-2.704
		L3.444,10.344z"/>
	<path fill="#313131" d="M14.517,9.709c-0.26,0-0.521-0.1-0.7-0.29c-0.189-0.18-0.29-0.439-0.29-0.71c0-0.27,0.101-0.52,0.29-0.71
		c0.36-0.359,1.05-0.37,1.41,0.011c0.189,0.18,0.3,0.439,0.3,0.699c0,0.271-0.11,0.53-0.3,0.71
		C15.047,9.61,14.786,9.709,14.517,9.709z"/>
	<path fill="#FF6243" d="M29.587,15.618c-0.08-0.057-0.157-0.115-0.239-0.169l-0.171-0.12l-0.012,0.021
		c-1.134-0.696-2.454-1.118-3.881-1.118c-4.115,0-7.451,3.336-7.451,7.45c0,2.926,1.702,5.432,4.155,6.65l-0.011,0.02
		c0,0,11.585,7.68,23.45-1.564L29.587,15.618z"/>
	<path fill="#313131" d="M32.819,32.315c-6.554,0-11.318-3.079-11.395-3.13c-0.028-0.019-0.055-0.038-0.081-0.06
		c-2.788-1.475-4.511-4.307-4.511-7.443c0-4.659,3.791-8.45,8.45-8.45c1.463,0,2.916,0.398,4.217,1.154
		c0.089,0.028,0.174,0.069,0.252,0.124l0.171,0.12c0.041,0.026,0.106,0.074,0.173,0.121l-0.479,0.816l0.004,0.003l0.543-0.771
		l15.841,11.17c0.259,0.183,0.416,0.477,0.424,0.794c0.007,0.316-0.136,0.617-0.386,0.813
		C41.408,31.187,36.786,32.315,32.819,32.315z M22.689,27.62c1.394,0.856,10.892,6.194,21.027-0.814l-14.706-10.37
		c-0.001,0-0.001-0.001-0.001-0.001c-0.003-0.002-0.084-0.06-0.087-0.063l-0.142-0.1c-0.048-0.019-0.095-0.042-0.14-0.069
		c-1.033-0.635-2.195-0.971-3.358-0.971c-3.557,0-6.45,2.894-6.45,6.45c0,2.446,1.38,4.651,3.601,5.755
		C22.528,27.484,22.614,27.546,22.689,27.62z"/>
	<path fill="#313131" d="M41,30.021c-0.186,0-0.373-0.052-0.54-0.159l-8.37-5.389c-0.465-0.299-0.599-0.918-0.3-1.382
		c0.3-0.465,0.919-0.598,1.382-0.3l8.37,5.389c0.465,0.299,0.599,0.918,0.3,1.382C41.65,29.859,41.329,30.021,41,30.021z"/>
	<path fill="#313131" d="M35.375,31.441c-0.186,0-0.373-0.052-0.54-0.159l-5.491-3.535c-0.465-0.299-0.599-0.918-0.3-1.382
		c0.3-0.464,0.918-0.598,1.382-0.3l5.491,3.535c0.465,0.299,0.599,0.918,0.3,1.382C36.025,31.279,35.704,31.441,35.375,31.441z"/>
	<path fill="#313131" d="M11.826,31.62c-0.26,0-0.52-0.1-0.71-0.29c-0.18-0.18-0.29-0.439-0.29-0.71c0-0.26,0.11-0.52,0.29-0.71
		c0.37-0.36,1.04-0.37,1.42,0c0.181,0.19,0.29,0.45,0.29,0.71c0,0.271-0.109,0.53-0.29,0.71C12.347,31.52,12.087,31.62,11.826,31.62
		z"/>
</g>
</svg>
