<?xml version="1.0" encoding="utf-8"?>
<!-- Generator: Adobe Illustrator 16.0.0, SVG Export Plug-In . SVG Version: 6.00 Build 0)  -->
<!DOCTYPE svg PUBLIC "-//W3C//DTD SVG 1.1//EN" "http://www.w3.org/Graphics/SVG/1.1/DTD/svg11.dtd">
<svg version="1.1" id="_x3C_레이어_x3E_" xmlns="http://www.w3.org/2000/svg" xmlns:xlink="http://www.w3.org/1999/xlink"
	 x="0px" y="0px" width="43.846px" height="39.501px" viewBox="0 0 43.846 39.501" enable-background="new 0 0 43.846 39.501"
	 xml:space="preserve">
<g>
	<path fill="#21A559" d="M9.846,4.352C10.04,2.406,11.821,1,13.775,1h7.705c2.809,0,5.084,2.276,5.084,5.084v4.931v10.461h-8.967
		V11.015h-4.035h-1.175c-1.403,0-2.542-1.138-2.542-2.542V4.352z"/>
	<path fill="#21A559" d="M7.826,29.031h28.192c2.615,0,4.735,2.121,4.735,4.736l0,0c0,2.615-2.12,4.734-4.735,4.734H7.826
		c-2.615,0-4.734-2.119-4.734-4.734l0,0C3.092,31.152,5.211,29.031,7.826,29.031z"/>
	<path fill="#21A559" d="M12.735,21.476H31.11c2.614,0,4.733,2.119,4.733,4.734v2.82H8.002v-2.82
		C8.002,23.595,10.121,21.476,12.735,21.476z"/>
	<path fill="#313131" d="M26.564,22.476h-8.967c-0.553,0-1-0.447-1-1v-9.461h-4.21c-1.953,0-3.542-1.589-3.542-3.542V4.352
		c0-0.033,0.002-0.066,0.005-0.1C9.089,1.868,11.252,0,13.775,0h7.705c3.355,0,6.084,2.729,6.084,6.084v15.392
		C27.564,22.029,27.117,22.476,26.564,22.476z M18.598,20.477h6.967V6.084C25.564,3.832,23.732,2,21.48,2h-7.705
		c-1.492,0-2.77,1.053-2.93,2.405v4.067c0,0.851,0.691,1.542,1.542,1.542h5.21c0.553,0,1,0.447,1,1V20.477z"/>
	<path fill="#313131" d="M38.111,39.501H5.734C2.572,39.501,0,36.929,0,33.767s2.572-5.736,5.734-5.736h32.377
		c3.162,0,5.734,2.574,5.734,5.736S41.273,39.501,38.111,39.501z M5.734,30.031C3.675,30.031,2,31.707,2,33.767
		c0,2.059,1.675,3.734,3.734,3.734h32.377c2.059,0,3.734-1.676,3.734-3.734c0-2.061-1.676-3.736-3.734-3.736H5.734z"/>
	<path fill="#313131" d="M37.391,30.031H6.455c-0.553,0-1-0.447-1-1v-2.82c0-3.162,2.572-5.734,5.733-5.734h21.469
		c3.161,0,5.733,2.572,5.733,5.734v2.82C38.391,29.583,37.943,30.031,37.391,30.031z M7.455,28.031h28.936v-1.82
		c0-2.059-1.674-3.734-3.733-3.734H11.188c-2.06,0-3.733,1.676-3.733,3.734V28.031z"/>
	<path fill="#313131" d="M9.148,7.893H4.906c-0.552,0-1-0.447-1-1s0.448-1,1-1h4.242c0.553,0,1,0.447,1,1S9.701,7.893,9.148,7.893z"
		/>
	<g>
		<g>
			<g>
				<path fill="#FFB648" d="M11.07,33.767c-2.615,0-4.734-2.121-4.734-4.736h9.469C15.805,31.646,13.686,33.767,11.07,33.767z"/>
				<path fill="#FFB648" d="M32.201,33.767c-2.615,0-4.735-2.121-4.735-4.736h9.47C36.936,31.646,34.815,33.767,32.201,33.767z"/>
			</g>
			<g>
				<path fill="#FFB648" d="M15.756,25.207c-2.092,0-3.787-1.697-3.787-3.789h7.575C19.544,23.509,17.848,25.207,15.756,25.207z"/>
			</g>
			<g>
				<path fill="#FFB648" d="M27.466,25.207c-2.092,0-3.788-1.697-3.788-3.789h7.576C31.254,23.509,29.558,25.207,27.466,25.207z"/>
			</g>
			<path fill="#FFB648" d="M21.636,33.767c2.614,0,4.734,2.119,4.734,4.734H16.9C16.9,35.886,19.021,33.767,21.636,33.767z"/>
			<path fill="#FFB648" d="M22.777,14.102c0-2.092,1.695-3.788,3.787-3.788v7.576C24.473,17.89,22.777,16.193,22.777,14.102z"/>
		</g>
	</g>
	<g>
		<g>
			<path fill="#313131" d="M11.07,34.767c-3.162,0-5.734-2.574-5.734-5.736c0-0.553,0.447-1,1-1h9.469c0.553,0,1,0.447,1,1
				C16.805,32.193,14.232,34.767,11.07,34.767z M7.471,30.031c0.439,1.576,1.887,2.736,3.6,2.736s3.16-1.16,3.6-2.736H7.471z"/>
			<path fill="#313131" d="M32.201,34.767c-3.162,0-5.735-2.574-5.735-5.736c0-0.553,0.448-1,1-1h9.47c0.553,0,1,0.447,1,1
				C37.936,32.193,35.363,34.767,32.201,34.767z M28.602,30.031c0.438,1.576,1.886,2.736,3.6,2.736c1.713,0,3.16-1.16,3.599-2.736
				H28.602z"/>
		</g>
		<g>
			<path fill="#313131" d="M15.756,26.207c-2.64,0-4.787-2.148-4.787-4.789c0-0.553,0.447-1,1-1h7.575c0.552,0,1,0.447,1,1
				C20.544,24.058,18.396,26.207,15.756,26.207z M13.154,22.417c0.402,1.045,1.416,1.789,2.602,1.789s2.199-0.744,2.603-1.789
				H13.154z"/>
		</g>
		<g>
			<path fill="#313131" d="M27.466,26.207c-2.64,0-4.788-2.148-4.788-4.789c0-0.553,0.448-1,1-1h7.576c0.553,0,1,0.447,1,1
				C32.254,24.058,30.105,26.207,27.466,26.207z M24.863,22.417c0.402,1.045,1.418,1.789,2.603,1.789s2.2-0.744,2.603-1.789H24.863z
				"/>
		</g>
		<path fill="#313131" d="M26.37,39.501H16.9c-0.552,0-1-0.447-1-1c0-3.162,2.573-5.734,5.735-5.734s5.734,2.572,5.734,5.734
			C27.37,39.054,26.922,39.501,26.37,39.501z M18.037,37.501h7.197c-0.438-1.576-1.886-2.734-3.599-2.734
			S18.475,35.925,18.037,37.501z"/>
		<path fill="#313131" d="M26.564,18.89c-2.64,0-4.787-2.147-4.787-4.788s2.147-4.788,4.787-4.788c0.553,0,1,0.447,1,1v7.576
			C27.564,18.442,27.117,18.89,26.564,18.89z M25.564,11.499c-1.045,0.402-1.787,1.417-1.787,2.603s0.742,2.2,1.787,2.603V11.499z"
			/>
	</g>
	<path fill="#313131" d="M18.191,7.109c-0.261,0-0.521-0.109-0.701-0.3c-0.189-0.18-0.289-0.44-0.289-0.7
		c0-0.27,0.1-0.52,0.289-0.71c0.371-0.37,1.041-0.37,1.41,0c0.19,0.19,0.291,0.44,0.291,0.71c0,0.26-0.101,0.521-0.291,0.7
		C18.721,7,18.461,7.109,18.191,7.109z"/>
</g>
</svg>
