<?xml version="1.0" encoding="utf-8"?>
<!-- Generator: Adobe Illustrator 16.0.0, SVG Export Plug-In . SVG Version: 6.00 Build 0)  -->
<!DOCTYPE svg PUBLIC "-//W3C//DTD SVG 1.1//EN" "http://www.w3.org/Graphics/SVG/1.1/DTD/svg11.dtd">
<svg version="1.1" id="_x3C_레이어_x3E_" xmlns="http://www.w3.org/2000/svg" xmlns:xlink="http://www.w3.org/1999/xlink"
	 x="0px" y="0px" width="57.207px" height="39.501px" viewBox="0 0 57.207 39.501" enable-background="new 0 0 57.207 39.501"
	 xml:space="preserve">
<g>
	<path fill="#5D5D5D" d="M9.617,32.815c2.746,2.123,7.378,0.964,11.472-2.506c1.861-1.577,1.821-4.463-0.109-5.955l0,0
		c-1.667-1.289-4.063-0.982-5.352,0.685L9.617,32.815z"/>
	<path fill="#313131" d="M13.005,34.894c-1.511,0-2.88-0.422-3.999-1.288c-0.438-0.338-0.518-0.966-0.18-1.402l6.011-7.776
		c1.624-2.102,4.657-2.488,6.754-0.864c1.152,0.891,1.832,2.236,1.864,3.692c0.033,1.472-0.594,2.862-1.72,3.816
		C18.775,33.581,15.669,34.894,13.005,34.894z M11.102,32.53c2.36,0.993,5.959-0.117,9.341-2.983
		c0.664-0.563,1.033-1.381,1.014-2.246c-0.02-0.85-0.416-1.636-1.088-2.155c-0.595-0.46-1.333-0.661-2.079-0.565
		s-1.41,0.476-1.87,1.07L11.102,32.53z"/>
	<path fill="#5D5D5D" d="M44.681,17.532L44.681,17.532c0-1.355-0.989-2.454-2.209-2.454h-15.66V6.452
		c-3.858,0-7.041,2.623-7.572,8.626H5.375c-1.22,0-2.209,1.099-2.209,2.454l0,0c0,2.767,0.809,5.317,2.164,7.399h37.187
		C43.872,22.849,44.681,20.298,44.681,17.532z"/>
	<path fill="#ADADAD" d="M5.33,24.931c2.068,3.179,5.425,5.255,9.225,5.255h18.736c3.801,0,7.157-2.076,9.226-5.255H5.33z"/>
	<path fill="#313131" d="M34.332,31.186H13.514c-7.529,0-13.654-6.125-13.654-13.654c0-1.904,1.55-3.454,3.454-3.454h14.523
		c0.841-5.422,4.265-8.626,9.296-8.626c0.553,0,1,0.447,1,1v7.626h16.399c1.904,0,3.454,1.55,3.454,3.454
		C47.986,25.061,41.861,31.186,34.332,31.186z M3.313,16.078c-0.802,0-1.454,0.652-1.454,1.454c0,6.426,5.229,11.654,11.654,11.654
		h20.818c6.426,0,11.654-5.229,11.654-11.654c0-0.802-0.652-1.454-1.454-1.454H27.133c-0.553,0-1-0.447-1-1V7.504
		c-3.702,0.401-5.968,3.09-6.419,7.671c-0.051,0.512-0.48,0.902-0.995,0.902H3.313z"/>
	<path fill="#5D5D5D" d="M33.536,32.815c-2.746,2.123-7.379,0.964-11.473-2.506c-1.861-1.577-1.82-4.463,0.11-5.955l0,0
		c1.667-1.289,4.063-0.982,5.351,0.685L33.536,32.815z"/>
	<path fill="#313131" d="M30.148,34.894c-2.665,0-5.771-1.313-8.731-3.822c-1.126-0.954-1.753-2.345-1.72-3.815
		c0.033-1.456,0.713-2.803,1.865-3.693c1.018-0.787,2.278-1.134,3.556-0.967c1.275,0.163,2.411,0.813,3.197,1.831l6.012,7.776
		c0.338,0.437,0.258,1.064-0.18,1.402C33.028,34.472,31.659,34.894,30.148,34.894z M24.502,24.556c-0.62,0-1.219,0.204-1.717,0.589
		c-0.673,0.521-1.069,1.306-1.088,2.156c-0.02,0.864,0.35,1.683,1.013,2.245c3.381,2.865,6.976,3.975,9.342,2.984l-5.318-6.881
		c-0.46-0.595-1.124-0.975-1.869-1.07C24.743,24.564,24.622,24.556,24.502,24.556z"/>
	<circle fill="#313131" cx="9.703" cy="19.605" r="1.038"/>
	<g>
		<path fill="#313131" d="M13.703,25.944c-0.414,0-0.75-0.336-0.75-0.75V21.92c0-0.414,0.336-0.75,0.75-0.75s0.75,0.336,0.75,0.75
			v3.273C14.453,25.608,14.117,25.944,13.703,25.944z"/>
		<path fill="#313131" d="M15.869,26.49c-0.414,0-0.75-0.336-0.75-0.75v-4.365c0-0.414,0.336-0.75,0.75-0.75s0.75,0.336,0.75,0.75
			v4.365C16.619,26.154,16.283,26.49,15.869,26.49z"/>
		<path fill="#313131" d="M18.036,27.036c-0.414,0-0.75-0.336-0.75-0.75v-5.457c0-0.414,0.336-0.75,0.75-0.75s0.75,0.336,0.75,0.75
			v5.457C18.786,26.7,18.45,27.036,18.036,27.036z"/>
	</g>
	<path fill="#5D5D5D" d="M47.253,5.606c-3.217,2.07-4.508,5.994-3.394,9.472h0.673c1.355,0,2.454,1.099,2.454,2.454l0,0
		c0,0.579-0.052,1.146-0.128,1.705c2.681,1.954,6.391,2.182,9.348,0.278l-3.074-4.964l-4.046-0.517l0.573-4.442L47.253,5.606z"/>
	<path fill="#313131" d="M51.734,21.84c-1.915,0-3.826-0.601-5.465-1.796c-0.297-0.216-0.451-0.578-0.402-0.942
		c0.082-0.601,0.12-1.1,0.12-1.57c0-0.802-0.652-1.454-1.454-1.454h-0.674c-0.435,0-0.819-0.281-0.952-0.695
		c-1.277-3.987,0.287-8.354,3.805-10.617c0.227-0.146,0.504-0.191,0.767-0.134c0.264,0.062,0.491,0.227,0.631,0.458l2.406,3.986
		c0.116,0.193,0.164,0.421,0.136,0.645l-0.445,3.449l3.053,0.39c0.299,0.038,0.564,0.209,0.724,0.466l3.074,4.964
		c0.287,0.464,0.149,1.072-0.31,1.367C55.206,21.348,53.469,21.84,51.734,21.84z M47.923,18.749c2.104,1.299,4.671,1.44,6.882,0.402
		l-2.272-3.668l-3.573-0.456c-0.263-0.034-0.502-0.171-0.664-0.381c-0.163-0.21-0.234-0.476-0.201-0.739l0.529-4.097l-1.656-2.743
		c-1.988,1.726-2.896,4.42-2.34,7.012c1.861,0.05,3.36,1.58,3.36,3.453C47.987,17.918,47.967,18.315,47.923,18.749z"/>
</g>
</svg>
