<?xml version="1.0" encoding="utf-8"?>
<!-- Generator: Adobe Illustrator 16.0.0, SVG Export Plug-In . SVG Version: 6.00 Build 0)  -->
<!DOCTYPE svg PUBLIC "-//W3C//DTD SVG 1.1//EN" "http://www.w3.org/Graphics/SVG/1.1/DTD/svg11.dtd">
<svg version="1.1" id="_x3C_레이어_x3E_" xmlns="http://www.w3.org/2000/svg" xmlns:xlink="http://www.w3.org/1999/xlink"
	 x="0px" y="0px" width="53px" height="46px" viewBox="0 0 53 46" enable-background="new 0 0 53 46" xml:space="preserve">
<g>
	<path fill="#91DEF3" d="M31.861,18.433H12.412c-6.156,0-11.148,4.991-11.148,11.148l0,0c0,2.332,1.89,4.221,4.224,4.221h33.3
		c2.331,0,4.221-1.889,4.221-4.221l0,0C43.009,23.424,38.019,18.433,31.861,18.433z"/>
	<path fill="#91DEF3" d="M30.205,7.54H14.97c-4.665,0-8.444,3.78-8.444,8.444v4.885h32.124v-4.885
		C38.649,11.32,34.868,7.54,30.205,7.54z"/>
	<path fill="none" stroke="#313131" stroke-width="2" stroke-linecap="round" stroke-linejoin="round" stroke-miterlimit="10" d="
		M21.774,7.54H14.97c-4.665,0-8.444,3.78-8.444,8.444v4.143c-3.155,1.968-5.262,5.462-5.262,9.454l0,0
		c0,2.332,1.89,4.221,4.224,4.221h33.3c2.331,0,4.221-1.889,4.221-4.221l0,0c0-3.599-1.713-6.791-4.359-8.829v-4.768
		c0-4.664-3.781-8.444-8.444-8.444"/>
	<path fill="#FFFFFF" d="M11.079,20.947v-4.963c0-2.145,1.745-3.89,3.891-3.89h15.235c2.146,0,3.89,1.745,3.89,3.89v4.963H11.079z"
		/>
	<path fill="none" stroke="#313131" stroke-width="2" stroke-linecap="round" stroke-linejoin="round" stroke-miterlimit="10" d="
		M11.079,20.947v-4.963c0-2.145,1.745-3.89,3.891-3.89h15.235c2.146,0,3.89,1.745,3.89,3.89v4.963H11.079z"/>
	<g>
		<circle fill="#5D5D5D" cx="10.484" cy="32.759" r="6.02"/>
		<path fill="#D3E2E6" d="M10.483,35.704c-1.624,0-2.945-1.321-2.945-2.946c0-1.622,1.322-2.945,2.945-2.945
			c1.625,0,2.946,1.323,2.946,2.945C13.429,34.383,12.108,35.704,10.483,35.704z"/>
		
			<circle fill="none" stroke="#313131" stroke-width="2" stroke-linecap="round" stroke-linejoin="round" stroke-miterlimit="10" cx="10.484" cy="32.759" r="6.02"/>
		
			<path fill="none" stroke="#313131" stroke-width="1.5" stroke-linecap="round" stroke-linejoin="round" stroke-miterlimit="10" d="
			M10.483,35.704c-1.624,0-2.945-1.321-2.945-2.946c0-1.622,1.322-2.945,2.945-2.945c1.625,0,2.946,1.323,2.946,2.945
			C13.429,34.383,12.108,35.704,10.483,35.704z"/>
	</g>
	<g>
		<circle fill="#5D5D5D" cx="33.42" cy="32.759" r="6.02"/>
		<path fill="#D3E2E6" d="M33.419,35.704c-1.622,0-2.943-1.321-2.943-2.946c0-1.622,1.321-2.945,2.943-2.945
			c1.626,0,2.947,1.323,2.947,2.945C36.366,34.383,35.045,35.704,33.419,35.704z"/>
		
			<circle fill="none" stroke="#313131" stroke-width="2" stroke-linecap="round" stroke-linejoin="round" stroke-miterlimit="10" cx="33.42" cy="32.759" r="6.02"/>
		
			<path fill="none" stroke="#313131" stroke-width="1.5" stroke-linecap="round" stroke-linejoin="round" stroke-miterlimit="10" d="
			M33.419,35.704c-1.622,0-2.943-1.321-2.943-2.946c0-1.622,1.321-2.945,2.943-2.945c1.626,0,2.947,1.323,2.947,2.945
			C36.366,34.383,35.045,35.704,33.419,35.704z"/>
	</g>
	<g>
		<path fill="#FEC95B" d="M39.531,21.955c-0.557,0.737-0.89,1.648-0.868,2.642c0.053,2.311,1.942,4.138,4.239,4.143
			C42.842,25.989,41.541,23.55,39.531,21.955z"/>
		<path fill="none" stroke="#313131" stroke-width="2" stroke-linecap="round" stroke-linejoin="round" stroke-miterlimit="10" d="
			M39.531,21.955c-0.557,0.737-0.89,1.648-0.868,2.642c0.053,2.311,1.942,4.138,4.239,4.143
			C42.842,25.989,41.541,23.55,39.531,21.955z"/>
	</g>
	
		<line fill="none" stroke="#313131" stroke-width="2" stroke-linecap="round" stroke-linejoin="round" stroke-miterlimit="10" x1="42.997" y1="19.855" x2="50.979" y2="17.295"/>
	
		<line fill="none" stroke="#313131" stroke-width="2" stroke-linecap="round" stroke-linejoin="round" stroke-miterlimit="10" x1="46.141" y1="29.332" x2="51.833" y2="29.332"/>
	
		<line fill="none" stroke="#313131" stroke-width="2" stroke-linecap="round" stroke-linejoin="round" stroke-miterlimit="10" x1="22.587" y1="12.853" x2="22.587" y2="20.947"/>
	
		<line fill="none" stroke="#313131" stroke-width="2" stroke-linecap="round" stroke-linejoin="round" stroke-miterlimit="10" x1="22.586" y1="24.332" x2="25.838" y2="24.332"/>
	
		<line fill="none" stroke="#313131" stroke-width="2" stroke-linecap="round" stroke-linejoin="round" stroke-miterlimit="10" x1="25.777" y1="7.222" x2="25.777" y2="7.222"/>
</g>
</svg>
