<?xml version="1.0" encoding="utf-8"?>
<!-- Generator: Adobe Illustrator 16.0.0, SVG Export Plug-In . SVG Version: 6.00 Build 0)  -->
<!DOCTYPE svg PUBLIC "-//W3C//DTD SVG 1.1//EN" "http://www.w3.org/Graphics/SVG/1.1/DTD/svg11.dtd">
<svg version="1.1" id="_x3C_레이어_x3E_" xmlns="http://www.w3.org/2000/svg" xmlns:xlink="http://www.w3.org/1999/xlink"
	 x="0px" y="0px" width="42.625px" height="46px" viewBox="0 0 42.625 46" enable-background="new 0 0 42.625 46"
	 xml:space="preserve">
<g>
	<path fill="#F2454E" d="M35.726,8.586c-7.947-7.947-20.879-7.947-28.826,0c-7.946,7.947-7.946,20.879,0,28.827
		c3.974,3.973,9.194,5.961,14.413,5.961c5.22,0,10.439-1.988,14.413-5.961C43.672,29.466,43.672,16.534,35.726,8.586z M21.313,7.322
		c4.016,0,8.033,1.529,11.092,4.586c5.549,5.551,6.044,14.25,1.521,20.386L12.019,10.386C14.774,8.356,18.038,7.322,21.313,7.322z
		 M10.221,34.091c-5.55-5.549-6.045-14.249-1.523-20.383l21.907,21.907C24.471,40.136,15.771,39.64,10.221,34.091z"/>
	<path fill="#F2454E" d="M6.899,37.413c3.974,3.973,9.193,5.961,14.412,5.961c5.22,0,10.44-1.988,14.414-5.961
		c7.946-7.947,7.946-20.879,0-28.827c-7.947-7.947-20.879-7.947-28.826,0C-1.047,16.534-1.047,29.466,6.899,37.413z M30.604,10.386
		L8.697,32.294c-4.521-6.137-4.026-14.835,1.523-20.386c3.058-3.057,7.075-4.586,11.091-4.586
		C24.586,7.322,27.85,8.356,30.604,10.386z M12.019,35.614l21.907-21.907c4.522,6.135,4.027,14.834-1.521,20.383
		C26.854,39.64,18.154,40.136,12.019,35.614z"/>
	<path fill="#313131" d="M21.313,44.313c-5.702,0-11.057-2.215-15.077-6.236c-8.313-8.313-8.313-21.841,0-30.155
		c8.313-8.313,21.84-8.315,30.154,0l0,0c8.313,8.313,8.313,21.842,0,30.155C32.368,42.099,27.014,44.313,21.313,44.313z
		 M21.313,3.565c-4.979,0-9.958,1.895-13.749,5.685c-7.58,7.581-7.58,19.917,0,27.499c3.666,3.666,8.549,5.686,13.748,5.686
		c5.2,0,10.083-2.02,13.75-5.686c7.58-7.582,7.58-19.917,0-27.499C31.271,5.46,26.291,3.565,21.313,3.565z M21.34,39.599
		c-0.02,0-0.041,0-0.063,0c-0.172,0-0.35-0.008-0.529-0.014c0,0-0.098-0.004-0.101-0.004c-0.287-0.012-0.574-0.025-0.861-0.053
		c-0.108-0.01-0.217-0.021-0.325-0.035l-0.125-0.016c-0.358-0.043-0.711-0.092-1.062-0.156l-0.185-0.037
		c-0.488-0.1-0.895-0.193-1.298-0.307c-0.001,0-0.094-0.027-0.096-0.027c-1.896-0.549-3.657-1.416-5.235-2.58
		c-0.22-0.162-0.358-0.412-0.379-0.686c-0.021-0.273,0.079-0.541,0.272-0.734l9.293-9.293c0.367-0.367,0.962-0.367,1.329,0
		l9.293,9.293c0.193,0.193,0.293,0.461,0.272,0.734s-0.159,0.523-0.379,0.686c-1.578,1.164-3.34,2.031-5.235,2.58
		c-0.002,0-0.095,0.027-0.097,0.027c-0.402,0.113-0.809,0.207-1.217,0.291l-0.272,0.053c-0.343,0.064-0.696,0.113-1.048,0.156
		l-0.131,0.016c-0.109,0.014-0.217,0.025-0.326,0.035c-0.285,0.027-0.573,0.041-0.86,0.053l-0.103,0.004
		C21.696,39.591,21.519,39.599,21.34,39.599z M25.328,37.167l0.253,0.906l-0.231-0.912c1.371-0.396,2.631-0.959,3.789-1.684
		l-7.827-7.828l-7.826,7.828c1.155,0.725,2.406,1.283,3.731,1.666c0.444,0.127,0.807,0.209,1.169,0.283l0.225,0.045
		c0.319,0.059,0.632,0.102,0.945,0.141l0.4,0.045c0.259,0.023,0.517,0.037,0.774,0.047l0.088,0.004
		c0.163,0.006,0.341,0.01,0.489,0.012c0.166-0.002,0.334-0.006,0.497-0.012l0.097-0.004c0.25-0.01,0.509-0.023,0.766-0.047
		l0.406-0.045c0.309-0.039,0.621-0.082,0.934-0.139l0.146-0.029c0.449-0.092,0.811-0.174,1.169-0.275L25.328,37.167z M33.926,33.233
		c-0.248,0-0.486-0.1-0.664-0.275l-9.293-9.293c-0.367-0.367-0.367-0.962,0-1.329l9.293-9.293c0.194-0.193,0.463-0.293,0.735-0.272
		s0.522,0.159,0.686,0.379c1.167,1.584,2.035,3.35,2.582,5.248c0.139,0.485,0.234,0.898,0.317,1.315l0.051,0.25
		c0.065,0.348,0.114,0.705,0.158,1.063l0.012,0.102c0.014,0.114,0.027,0.229,0.038,0.344c0.026,0.288,0.041,0.579,0.053,0.87
		l0.003,0.104c0.008,0.185,0.015,0.369,0.015,0.555c0,0.184-0.007,0.366-0.015,0.55l-0.003,0.104
		c-0.012,0.295-0.026,0.586-0.053,0.875c-0.011,0.115-0.024,0.23-0.038,0.344l-0.012,0.1c-0.044,0.359-0.093,0.717-0.159,1.072
		l-0.035,0.172c-0.098,0.486-0.193,0.9-0.31,1.311c-0.569,1.975-1.438,3.738-2.604,5.322c-0.163,0.221-0.413,0.359-0.686,0.379
		C33.973,33.231,33.949,33.233,33.926,33.233z M25.962,23l7.827,7.827c0.727-1.16,1.287-2.414,1.67-3.744
		c0.122-0.43,0.207-0.797,0.281-1.166l0.043-0.209c0.06-0.322,0.104-0.641,0.142-0.957l0.045-0.395c0,0,0,0,0-0.002
		c0.024-0.256,0.036-0.513,0.047-0.771l0.003-0.102c0.006-0.161,0.013-0.321,0.013-0.481c0-0.162-0.007-0.324-0.013-0.484
		l-0.003-0.104c-0.011-0.253-0.022-0.51-0.047-0.767l-0.045-0.397c-0.038-0.315-0.082-0.633-0.141-0.947l-0.025-0.13
		c-0.093-0.457-0.178-0.823-0.279-1.186c-0.398-1.383-0.963-2.649-1.69-3.812L25.962,23z M8.697,33.233
		c-0.023,0-0.047-0.002-0.07-0.004c-0.272-0.02-0.523-0.158-0.686-0.379c-1.167-1.584-2.036-3.348-2.582-5.248l-0.022-0.074
		c-0.116-0.41-0.212-0.824-0.296-1.24l-0.05-0.25c-0.065-0.348-0.115-0.705-0.158-1.064l-0.012-0.1
		c-0.014-0.113-0.027-0.23-0.038-0.344c-0.026-0.291-0.04-0.58-0.053-0.869l-0.004-0.103c-0.007-0.188-0.014-0.375-0.013-0.563
		c-0.001-0.18,0.006-0.369,0.013-0.557c0-0.003,0.004-0.099,0.004-0.101c0.013-0.289,0.026-0.578,0.053-0.866
		c0.011-0.116,0.024-0.23,0.038-0.345l0.012-0.1c0.043-0.36,0.093-0.718,0.159-1.073l0.034-0.172c0.099-0.487,0.194-0.9,0.311-1.311
		c0.568-1.974,1.438-3.739,2.604-5.323c0.162-0.22,0.413-0.358,0.686-0.379c0.283-0.019,0.541,0.079,0.734,0.272l9.294,9.293
		c0.366,0.367,0.366,0.962,0,1.329l-9.294,9.293C9.185,33.134,8.946,33.233,8.697,33.233z M7.144,27.013
		c0.008,0.027,0.022,0.078,0.025,0.086c0.379,1.316,0.938,2.57,1.666,3.729L16.662,23l-7.827-7.827
		c-0.728,1.159-1.288,2.415-1.671,3.743c-0.121,0.431-0.206,0.797-0.28,1.166l-0.043,0.21c-0.06,0.322-0.104,0.64-0.142,0.957
		l-0.045,0.393C6.631,21.9,6.618,22.16,6.607,22.419c-0.009,0.25-0.016,0.414-0.015,0.576c-0.001,0.171,0.006,0.332,0.011,0.494
		l0.004,0.099c0.011,0.252,0.023,0.512,0.047,0.77l0.045,0.395c0.038,0.314,0.082,0.633,0.141,0.947l0.025,0.129
		C6.957,26.284,7.042,26.651,7.144,27.013z M21.312,20.619L21.312,20.619c-0.249,0-0.487-0.1-0.664-0.275l-9.292-9.293
		c-0.367-0.367-0.367-0.962,0-1.329c0.033-0.032,0.07-0.065,0.109-0.093c1.355-1,2.863-1.788,4.479-2.343l0,0l0.318-0.11
		c0.275-0.088,0.561-0.165,0.847-0.239c0.21-0.055,0.419-0.108,0.63-0.154c0.235-0.051,0.475-0.1,0.714-0.142
		c0.284-0.05,0.568-0.088,0.855-0.123l0.155-0.021c0.133-0.018,0.266-0.034,0.398-0.046c0.527-0.045,1.005-0.066,1.45-0.068
		c0.469-0.01,0.968,0.025,1.45,0.068c0.134,0.012,0.266,0.028,0.398,0.046l0.155,0.02c0.287,0.036,0.571,0.074,0.856,0.124
		c0.239,0.042,0.479,0.091,0.717,0.143c0.208,0.046,0.418,0.099,0.626,0.152c0.286,0.075,0.571,0.152,0.854,0.242l0.312,0.108
		c1.611,0.554,3.115,1.338,4.469,2.334c0.141,0.101,0.256,0.239,0.324,0.406c0.146,0.352,0.065,0.756-0.203,1.024l-9.293,9.293
		C21.8,20.519,21.562,20.619,21.312,20.619z M13.486,10.524l7.825,7.826l7.827-7.826c-0.957-0.6-1.984-1.089-3.068-1.46
		l-0.271-0.096c-0.256-0.082-0.508-0.148-0.76-0.216c-0.184-0.048-0.368-0.094-0.554-0.135c-0.213-0.047-0.425-0.09-0.637-0.126
		c-0.253-0.045-0.507-0.079-0.76-0.11l-0.17-0.021c-0.108-0.014-0.215-0.028-0.322-0.037c-0.427-0.037-0.82-0.071-1.285-0.061
		c-0.001,0-0.002,0-0.004,0c-0.428,0-0.855,0.023-1.281,0.061c-0.106,0.009-0.215,0.023-0.323,0.037l-0.169,0.022
		c-0.253,0.03-0.506,0.064-0.759,0.109c-0.212,0.036-0.424,0.079-0.635,0.126c-0.188,0.042-0.373,0.087-0.557,0.136
		c-0.251,0.066-0.504,0.133-0.752,0.213l-0.279,0.098C15.47,9.435,14.441,9.924,13.486,10.524z"/>
	<path fill="#FFDCAF" d="M34.589,14.709l-1.721,2.183l-13.494,3.787c-1.182,0.332-1.874,1.556-1.549,2.74
		c0.311,1.128,1.439,1.826,2.589,1.597l6.625-1.321c0.383-0.076,0.654,0.368,0.412,0.674l-3.879,4.912
		c-0.061,0.078-0.146,0.131-0.243,0.15l-9.538,2.01c-1.195,0.25-1.956,1.43-1.691,2.623c0.255,1.15,1.37,1.895,2.528,1.688
		l9.335-1.658c2.336-0.416,4.511-1.471,6.284-3.047l2.952-2.623c0.681-0.605,1.429-1.119,2.218-1.561l1.404-1.756
		c0.093-0.691,0.158-1.391,0.158-2.108C36.979,19.952,36.095,17.117,34.589,14.709z"/>
	<path fill="#313131" d="M14.235,36.728c-1.444,0-2.729-0.998-3.054-2.459c-0.182-0.822-0.031-1.668,0.427-2.377
		c0.457-0.709,1.164-1.195,1.989-1.369l9.354-1.971l2.892-3.66l-5.245,1.047c-1.616,0.326-3.239-0.674-3.678-2.27
		c-0.461-1.677,0.525-3.424,2.2-3.895l13.199-3.703l1.531-1.942c0.189-0.24,0.484-0.375,0.788-0.357
		c0.306,0.018,0.584,0.181,0.746,0.44c1.658,2.648,2.534,5.688,2.534,8.789c0,0.679-0.053,1.387-0.166,2.233
		c-0.022,0.168-0.091,0.33-0.198,0.463L36.15,27.45c-0.075,0.096-0.169,0.174-0.274,0.234c-0.767,0.428-1.457,0.912-2.053,1.443
		l-2.952,2.623c-1.904,1.691-4.236,2.822-6.744,3.268l-9.335,1.66C14.605,36.712,14.419,36.728,14.235,36.728z M27.127,22.747
		c0.467,0,0.901,0.24,1.154,0.651c0.301,0.492,0.265,1.101-0.092,1.554l-3.879,4.912c-0.193,0.248-0.476,0.424-0.791,0.49
		l-9.534,2.006c-0.332,0.07-0.614,0.266-0.798,0.549c-0.184,0.285-0.244,0.623-0.171,0.953c0.146,0.66,0.784,1.078,1.446,0.967
		l9.335-1.66c2.167-0.385,4.181-1.361,5.825-2.822l2.953-2.625c0.653-0.58,1.4-1.113,2.22-1.586l1.128-1.408
		c0.078-0.648,0.116-1.203,0.116-1.727c0-2.298-0.543-4.558-1.58-6.608l-0.854,1.082c-0.122,0.156-0.292,0.269-0.483,0.323
		l-13.494,3.786c-0.683,0.191-1.084,0.903-0.896,1.586c0.178,0.652,0.837,1.054,1.499,0.925l6.625-1.32
		C26.946,22.756,27.037,22.747,27.127,22.747z"/>
	<g>
		<path fill="#FFD039" d="M16.618,25.888c0-0.656-0.445-1.203-1.05-1.369c-0.034-0.092-0.071-0.184-0.111-0.273
			c0.31-0.543,0.236-1.245-0.228-1.709c-0.465-0.464-1.166-0.536-1.71-0.227c-0.089-0.041-0.18-0.078-0.272-0.111
			c-0.165-0.605-0.713-1.05-1.369-1.05c-0.657,0-1.205,0.444-1.37,1.05c-0.093,0.033-0.184,0.07-0.272,0.111
			C9.691,22,8.99,22.072,8.525,22.536C8.061,23,7.988,23.702,8.299,24.245c-0.042,0.09-0.078,0.182-0.112,0.273
			c-0.604,0.166-1.05,0.713-1.05,1.369s0.445,1.205,1.05,1.371c0.034,0.092,0.07,0.182,0.112,0.271
			c-0.311,0.543-0.238,1.246,0.227,1.709c0.465,0.465,1.166,0.537,1.71,0.227c0.089,0.041,0.18,0.078,0.272,0.113
			c0.165,0.604,0.713,1.049,1.37,1.049c0.656,0,1.204-0.445,1.369-1.049c0.093-0.035,0.184-0.072,0.272-0.113
			c0.544,0.311,1.245,0.238,1.71-0.227c0.464-0.463,0.537-1.166,0.228-1.709c0.04-0.09,0.077-0.18,0.111-0.271
			C16.173,27.093,16.618,26.544,16.618,25.888z"/>
		<path fill="#313131" d="M11.878,31.333c-0.76,0-1.448-0.408-1.825-1.039c-0.714,0.18-1.488-0.018-2.025-0.557
			c-0.537-0.535-0.735-1.311-0.556-2.023c-0.631-0.377-1.039-1.066-1.039-1.826c0-0.758,0.408-1.447,1.039-1.824
			c-0.18-0.713,0.019-1.489,0.556-2.026c0.537-0.536,1.312-0.733,2.025-0.555c0.377-0.632,1.065-1.04,1.825-1.04
			c0.759,0,1.447,0.408,1.824,1.04c0.714-0.181,1.489,0.019,2.025,0.555c0.536,0.537,0.735,1.313,0.556,2.026
			c0.631,0.377,1.039,1.066,1.039,1.824c0,0.76-0.408,1.449-1.039,1.826c0.18,0.713-0.02,1.488-0.556,2.023
			c-0.536,0.537-1.306,0.736-2.025,0.557C13.325,30.925,12.637,31.333,11.878,31.333z M10.235,28.763
			c0.101,0,0.202,0.021,0.296,0.064c0.074,0.033,0.148,0.064,0.225,0.092c0.212,0.08,0.372,0.256,0.432,0.475
			c0.086,0.311,0.369,0.529,0.69,0.529c0.32,0,0.604-0.219,0.689-0.529c0.06-0.219,0.221-0.395,0.433-0.475
			c0.076-0.027,0.15-0.059,0.224-0.092c0.207-0.096,0.447-0.086,0.645,0.027c0.282,0.16,0.636,0.113,0.862-0.113
			s0.273-0.582,0.114-0.863c-0.112-0.195-0.123-0.434-0.029-0.639c0.033-0.074,0.064-0.15,0.093-0.227
			c0.078-0.213,0.256-0.375,0.475-0.434c0.313-0.086,0.53-0.369,0.53-0.691c0-0.32-0.218-0.605-0.531-0.689
			c-0.219-0.061-0.396-0.223-0.474-0.436c-0.028-0.076-0.06-0.152-0.093-0.227c-0.094-0.205-0.083-0.441,0.029-0.639
			c0.159-0.282,0.112-0.636-0.114-0.864c-0.228-0.227-0.58-0.272-0.862-0.112c-0.196,0.112-0.438,0.123-0.645,0.027
			c-0.073-0.034-0.147-0.064-0.224-0.093c-0.212-0.08-0.373-0.256-0.433-0.474c-0.085-0.312-0.369-0.53-0.689-0.53
			c-0.321,0-0.604,0.219-0.69,0.53c-0.06,0.218-0.22,0.394-0.432,0.474c-0.076,0.028-0.15,0.059-0.225,0.093
			c-0.208,0.095-0.449,0.084-0.645-0.027c-0.281-0.159-0.637-0.115-0.863,0.112C8.797,23.26,8.75,23.616,8.91,23.897
			c0.113,0.197,0.123,0.439,0.027,0.645c-0.033,0.072-0.063,0.146-0.091,0.221c-0.078,0.213-0.255,0.375-0.474,0.436
			c-0.313,0.084-0.531,0.369-0.531,0.689c0,0.322,0.218,0.605,0.53,0.691c0.219,0.059,0.396,0.221,0.475,0.434
			c0.028,0.074,0.058,0.148,0.091,0.221c0.096,0.207,0.086,0.447-0.027,0.645c-0.16,0.281-0.113,0.637,0.113,0.863
			c0.228,0.229,0.583,0.273,0.863,0.113C9.994,28.794,10.114,28.763,10.235,28.763z"/>
		<g>
			<g>
				<path fill="#313131" d="M10.757,25.396c-0.188,0-0.367-0.074-0.499-0.207c-0.131-0.131-0.206-0.311-0.206-0.498
					s0.075-0.367,0.206-0.498c0.254-0.264,0.733-0.264,0.996,0c0.132,0.131,0.207,0.311,0.207,0.498s-0.075,0.367-0.207,0.498
					C11.122,25.321,10.935,25.396,10.757,25.396z"/>
				<path fill="#313131" d="M13.002,25.396c-0.188,0-0.366-0.074-0.499-0.207c-0.131-0.131-0.206-0.311-0.206-0.498
					s0.075-0.367,0.197-0.498c0.272-0.264,0.742-0.264,1.006,0c0.131,0.131,0.206,0.311,0.206,0.498s-0.075,0.367-0.206,0.498
					C13.358,25.321,13.181,25.396,13.002,25.396z"/>
			</g>
			<g>
				<path fill="#313131" d="M10.757,27.792c-0.188,0-0.367-0.076-0.499-0.209c-0.131-0.131-0.206-0.309-0.206-0.496
					s0.075-0.367,0.206-0.498c0.264-0.264,0.733-0.264,0.996,0c0.132,0.131,0.207,0.311,0.207,0.498
					c0,0.178-0.075,0.365-0.207,0.496C11.122,27.716,10.943,27.792,10.757,27.792z"/>
				<path fill="#313131" d="M13.002,27.792c-0.188,0-0.366-0.076-0.499-0.209c-0.131-0.131-0.206-0.309-0.206-0.496
					s0.075-0.367,0.197-0.498c0.272-0.264,0.742-0.264,1.006,0c0.131,0.131,0.206,0.311,0.206,0.498
					c0,0.178-0.075,0.365-0.206,0.496C13.367,27.716,13.181,27.792,13.002,27.792z"/>
			</g>
		</g>
	</g>
	<g>
		<g>
			<g>
				<polygon fill="#65B9E9" points="29.909,15.583 24.811,14.061 28.678,10.406 				"/>
				<polygon fill="#65B9E9" points="16.995,18.657 20.862,15.001 15.763,13.481 				"/>
			</g>
			<g>
				<path fill="#313131" d="M29.909,16.287c-0.066,0-0.135-0.009-0.201-0.029l-5.1-1.521c-0.24-0.072-0.426-0.268-0.483-0.513
					c-0.059-0.244,0.019-0.502,0.201-0.675l3.867-3.655c0.183-0.174,0.439-0.237,0.686-0.163c0.24,0.071,0.426,0.267,0.483,0.512
					l1.232,5.177c0.059,0.244-0.019,0.502-0.201,0.675C30.261,16.22,30.087,16.287,29.909,16.287z M26.181,13.735l2.761,0.823
					l-0.667-2.802L26.181,13.735z"/>
				<path fill="#313131" d="M16.995,19.362c-0.067,0-0.135-0.01-0.202-0.029c-0.24-0.072-0.426-0.268-0.483-0.513l-1.231-5.176
					c-0.06-0.245,0.018-0.503,0.2-0.676c0.184-0.173,0.442-0.238,0.687-0.163l5.1,1.521c0.24,0.071,0.426,0.267,0.483,0.512
					c0.059,0.245-0.019,0.503-0.201,0.675l-3.867,3.655C17.347,19.294,17.172,19.362,16.995,19.362z M16.73,14.504l0.668,2.802
					l2.093-1.978L16.73,14.504z"/>
			</g>
			<path fill="#65B9E9" d="M25.236,16.848l-3.5,0.833c-1.327,0.317-2.659-0.503-2.975-1.831l-0.158-0.66
				c-0.315-1.328,0.505-2.66,1.832-2.976l3.5-0.834c1.327-0.315,2.659,0.505,2.976,1.831l0.157,0.662
				C27.385,15.2,26.564,16.533,25.236,16.848z"/>
			<path fill="#313131" d="M21.158,18.455c-0.58,0-1.151-0.16-1.658-0.472c-0.723-0.445-1.228-1.145-1.424-1.97l-0.158-0.66
				c-0.405-1.704,0.65-3.419,2.354-3.824l3.5-0.834c1.701-0.403,3.419,0.649,3.825,2.354l0.157,0.662
				c0.197,0.824,0.061,1.677-0.385,2.398c-0.445,0.723-1.145,1.229-1.969,1.425l-3.5,0.833
				C21.653,18.425,21.404,18.455,21.158,18.455z M24.507,12.018c-0.135,0-0.271,0.016-0.408,0.048L20.598,12.9
				c-0.946,0.226-1.533,1.18-1.309,2.127l0.157,0.66c0.109,0.46,0.392,0.849,0.792,1.096c0.404,0.247,0.879,0.325,1.335,0.214
				l3.5-0.833l0,0c0.46-0.109,0.848-0.392,1.096-0.793c0.247-0.402,0.323-0.875,0.214-1.334l-0.157-0.662
				C26.032,12.565,25.306,12.018,24.507,12.018z"/>
		</g>
		<path fill="#313131" d="M20.896,17.647c-0.058,0-0.116-0.007-0.174-0.021c-0.378-0.096-0.606-0.479-0.511-0.855l1.199-4.741
			c0.096-0.378,0.483-0.604,0.855-0.511c0.378,0.096,0.606,0.479,0.512,0.855l-1.199,4.741
			C21.498,17.434,21.211,17.647,20.896,17.647z"/>
		<path fill="#313131" d="M23.47,17.647c-0.058,0-0.115-0.007-0.173-0.021c-0.379-0.096-0.607-0.479-0.512-0.855l1.199-4.741
			c0.096-0.378,0.481-0.604,0.856-0.511c0.378,0.096,0.606,0.479,0.511,0.855l-1.199,4.741
			C24.071,17.434,23.784,17.647,23.47,17.647z"/>
	</g>
</g>
</svg>
