<?xml version="1.0" encoding="utf-8"?>
<!-- Generator: Adobe Illustrator 16.0.0, SVG Export Plug-In . SVG Version: 6.00 Build 0)  -->
<!DOCTYPE svg PUBLIC "-//W3C//DTD SVG 1.1//EN" "http://www.w3.org/Graphics/SVG/1.1/DTD/svg11.dtd">
<svg version="1.1" id="_x3C_레이어_x3E_" xmlns="http://www.w3.org/2000/svg" xmlns:xlink="http://www.w3.org/1999/xlink"
	 x="0px" y="0px" width="40.673px" height="46px" viewBox="0 0 40.673 46" enable-background="new 0 0 40.673 46"
	 xml:space="preserve">
<g>
	<path fill="#F9D026" d="M10.781,37.045L10.781,37.045c-5.368,0-9.719-4.353-9.719-9.72v-1.93H20.5v1.93
		C20.5,32.693,16.149,37.045,10.781,37.045z"/>
	<path fill="#F9D026" d="M30.221,37.045L30.221,37.045c-5.368,0-9.721-4.353-9.721-9.72v-1.93H39.94v1.93
		C39.94,32.693,35.588,37.045,30.221,37.045z"/>
	<path fill="#313131" d="M10.781,38.106c-5.943,0-10.779-4.836-10.779-10.78v-1.93c0-0.586,0.474-1.061,1.061-1.061H20.5
		c0.585,0,1.061,0.475,1.061,1.061v1.93C21.561,33.27,16.725,38.106,10.781,38.106z M2.122,26.457v0.869
		c0,4.774,3.885,8.659,8.659,8.659c4.775,0,8.659-3.885,8.659-8.659v-0.869H2.122z"/>
	<rect x="1.062" y="21.464" fill="#5D5D5D" width="38.878" height="3.932"/>
	<path fill="#313131" d="M39.94,26.457H1.062c-0.587,0-1.061-0.475-1.061-1.061v-3.932c0-0.586,0.474-1.061,1.061-1.061H39.94
		c0.586,0,1.061,0.474,1.061,1.061v3.932C41,25.982,40.526,26.457,39.94,26.457z M2.122,24.335h36.758v-1.811H2.122V24.335z"/>
	<path fill="#313131" d="M1.062,22.524c-0.265,0-0.528-0.097-0.733-0.294c-0.424-0.405-0.439-1.076-0.033-1.5L11.959,8.537
		c0.096-0.102,0.213-0.182,0.341-0.238c0.21-0.091,2.094-0.868,3.881,0.004c1.151,0.56,1.939,1.64,2.342,3.207
		c0.146,0.567-0.195,1.145-0.763,1.291c-0.57,0.148-1.146-0.197-1.291-0.763c-0.241-0.937-0.65-1.553-1.218-1.83
		c-0.708-0.345-1.57-0.139-1.932-0.026L1.828,22.197C1.619,22.415,1.34,22.524,1.062,22.524z"/>
	<path fill="#313131" d="M39.94,22.524c-0.278,0-0.558-0.109-0.767-0.327L27.681,10.182c-0.361-0.115-1.226-0.323-1.94,0.032
		c-0.563,0.278-0.969,0.893-1.209,1.824c-0.145,0.566-0.722,0.913-1.29,0.763c-0.567-0.146-0.909-0.724-0.764-1.291
		c0.403-1.567,1.191-2.647,2.343-3.207c1.786-0.872,3.671-0.095,3.88-0.004c0.129,0.056,0.245,0.137,0.342,0.238l11.664,12.194
		c0.405,0.424,0.39,1.095-0.033,1.5C40.468,22.427,40.204,22.524,39.94,22.524z"/>
	<path fill="#FFFFFF" d="M24.594,36.324c-0.271,0-0.543-0.104-0.75-0.311c-0.414-0.414-0.414-1.085,0-1.5l9.868-9.866
		c0.414-0.415,1.085-0.415,1.499,0c0.415,0.414,0.415,1.085,0,1.499l-9.868,9.867C25.136,36.22,24.866,36.324,24.594,36.324z"/>
	<path fill="#FFFFFF" d="M28.028,37.825c-0.271,0-0.543-0.104-0.75-0.311c-0.414-0.414-0.414-1.085,0-1.499l11.368-11.368
		c0.414-0.415,1.085-0.415,1.499,0c0.414,0.414,0.414,1.085,0,1.499L28.778,37.514C28.57,37.721,28.299,37.825,28.028,37.825z"/>
	<path fill="#313131" d="M30.221,38.106c-5.945,0-10.781-4.836-10.781-10.78v-1.93c0-0.586,0.476-1.061,1.061-1.061H39.94
		c0.586,0,1.061,0.475,1.061,1.061v1.93C41,33.27,36.165,38.106,30.221,38.106z M21.561,26.457v0.869
		c0,4.774,3.884,8.659,8.66,8.659c4.774,0,8.658-3.885,8.658-8.659v-0.869H21.561z"/>
</g>
</svg>
