<?xml version="1.0" encoding="utf-8"?>
<!-- Generator: Adobe Illustrator 16.0.0, SVG Export Plug-In . SVG Version: 6.00 Build 0)  -->
<!DOCTYPE svg PUBLIC "-//W3C//DTD SVG 1.1//EN" "http://www.w3.org/Graphics/SVG/1.1/DTD/svg11.dtd">
<svg version="1.1" id="_x3C_레이어_x3E_" xmlns="http://www.w3.org/2000/svg" xmlns:xlink="http://www.w3.org/1999/xlink"
	 x="0px" y="0px" width="36.461px" height="46px" viewBox="0 0 36.461 46" enable-background="new 0 0 36.461 46"
	 xml:space="preserve">
<g>
	<g>
		<path fill="#77D33C" d="M17.968,4.158l-6.982,6.982l7.248,7.248l14.23-14.23l0,0C28.46,0.155,21.971,0.155,17.968,4.158z"/>
		<path fill="#FFCF51" d="M4.003,4.158C0,8.16,0,14.65,4.003,18.653l6.982,6.982l7.248-7.247L4.003,4.158z"/>
		<path fill="#FF8163" d="M18.499,32.619l6.982-6.983l-7.247-7.247l-14.23,14.23l0,0C8.005,36.622,14.496,36.622,18.499,32.619z"/>
		<path fill="#829CF7" d="M32.464,18.123l-6.983-6.982l-7.247,7.248l14.23,14.23l0,0C36.466,28.616,36.466,22.126,32.464,18.123z"/>
	</g>
	<g>
		<path fill="#313131" d="M18.234,19.389c-0.266,0-0.52-0.105-0.707-0.293l-7.248-7.248c-0.391-0.391-0.391-1.023,0-1.414
			l6.982-6.983c4.386-4.385,11.523-4.385,15.91,0c0.188,0.188,0.293,0.441,0.293,0.707s-0.105,0.52-0.293,0.707l-1.428,1.427
			c-0.391,0.391-1.023,0.391-1.414,0s-0.391-1.023,0-1.414l0.682-0.682c-3.629-2.922-8.969-2.697-12.336,0.669L12.4,11.141
			l5.834,5.834l7.619-7.62c0.391-0.391,1.023-0.391,1.414,0s0.391,1.023,0,1.414l-8.326,8.327
			C18.753,19.283,18.499,19.389,18.234,19.389z"/>
		<path fill="#313131" d="M10.986,26.636c-0.256,0-0.512-0.098-0.707-0.293L3.296,19.36C1.171,17.235,0,14.41,0,11.405
			s1.171-5.83,3.296-7.954c0.391-0.391,1.023-0.391,1.414,0l14.23,14.23c0.188,0.188,0.293,0.441,0.293,0.707
			s-0.105,0.52-0.293,0.707l-7.248,7.247C11.498,26.538,11.242,26.636,10.986,26.636z M4.041,5.609
			c-2.922,3.629-2.698,8.969,0.67,12.337l6.275,6.275l5.834-5.833L4.041,5.609z"/>
		<path fill="#313131" d="M11.251,36.616c-2.882,0-5.763-1.097-7.955-3.29c-0.391-0.391-0.391-1.023,0-1.414l14.23-14.23
			c0.391-0.391,1.023-0.391,1.414,0l7.247,7.247c0.391,0.391,0.391,1.023,0,1.414l-6.982,6.983l0,0
			C17.013,35.52,14.132,36.616,11.251,36.616z M5.455,32.581c3.63,2.922,8.969,2.698,12.337-0.669l6.275-6.276l-5.833-5.833
			L5.455,32.581z"/>
		<path fill="#313131" d="M32.464,33.619c-0.256,0-0.512-0.098-0.707-0.293l-14.23-14.23c-0.391-0.391-0.391-1.023,0-1.414
			l7.247-7.248c0.391-0.391,1.023-0.391,1.414,0l6.983,6.982l0,0c4.387,4.387,4.387,11.523,0,15.91
			C32.976,33.521,32.72,33.619,32.464,33.619z M19.648,18.389l12.777,12.778c2.922-3.629,2.699-8.969-0.668-12.337l-6.276-6.275
			L19.648,18.389z"/>
	</g>
	<circle fill="#FFFFFF" cx="18.234" cy="18.389" r="2.75"/>
	<path fill="#313131" d="M18.234,22.139c-2.068,0-3.75-1.683-3.75-3.75s1.682-3.75,3.75-3.75c2.067,0,3.75,1.683,3.75,3.75
		S20.301,22.139,18.234,22.139z M18.234,16.639c-0.965,0-1.75,0.785-1.75,1.75s0.785,1.75,1.75,1.75s1.75-0.785,1.75-1.75
		S19.199,16.639,18.234,16.639z"/>
	<path fill="#313131" d="M18.234,45.838c-0.553,0-1-0.409-1-0.915V32.798c0-0.505,0.447-0.915,1-0.915c0.552,0,1,0.409,1,0.915
		v12.125C19.234,45.429,18.786,45.838,18.234,45.838z"/>
	<path fill="#313131" d="M28.902,8.719c-0.26,0-0.51-0.101-0.699-0.29c-0.19-0.181-0.301-0.44-0.301-0.71
		c0-0.261,0.11-0.521,0.301-0.7c0.369-0.38,1.039-0.38,1.409,0c0.19,0.18,0.29,0.439,0.29,0.7c0,0.27-0.1,0.52-0.29,0.71
		C29.421,8.618,29.162,8.719,28.902,8.719z"/>
</g>
</svg>
