<?xml version="1.0" encoding="utf-8"?>
<!-- Generator: Adobe Illustrator 16.0.0, SVG Export Plug-In . SVG Version: 6.00 Build 0)  -->
<!DOCTYPE svg PUBLIC "-//W3C//DTD SVG 1.1//EN" "http://www.w3.org/Graphics/SVG/1.1/DTD/svg11.dtd">
<svg version="1.1" id="_x3C_레이어_x3E_" xmlns="http://www.w3.org/2000/svg" xmlns:xlink="http://www.w3.org/1999/xlink"
	 x="0px" y="0px" width="32.13px" height="46px" viewBox="0 0 32.13 46" enable-background="new 0 0 32.13 46" xml:space="preserve"
	>
<g>
	<path fill="#78B9EB" d="M28.987,17.216c0,8.355-12.858,26.696-12.858,26.696S3.27,25.571,3.27,17.216
		c0-8.354,5.757-15.128,12.858-15.128S28.987,8.861,28.987,17.216z"/>
	<path fill="#313131" d="M16.128,44.912c-0.299,0-0.581-0.134-0.771-0.363C14.73,43.788,0,25.831,0,17.216
		C0,8.323,7.236,1.088,16.128,1.088c8.117,0,14.996,6.064,16.002,14.106c0.068,0.548-0.32,1.048-0.868,1.116
		c-0.554,0.063-1.048-0.32-1.116-0.868C29.265,8.399,23.239,3.088,16.128,3.088C8.338,3.088,2,9.426,2,17.216
		c0,6.849,11.072,21.256,14.128,25.102c2.381-2.997,9.635-12.418,12.726-19.722c0.216-0.51,0.806-0.745,1.311-0.531
		c0.509,0.215,0.746,0.802,0.531,1.311C26.875,32.404,17.305,44.057,16.9,44.549C16.709,44.778,16.427,44.912,16.128,44.912z"/>
	<circle fill="#FFFFFF" cx="16.128" cy="17.438" r="9.566"/>
	<path fill="#313131" d="M16.128,27.755c-5.688,0-10.316-4.628-10.316-10.316S10.44,7.122,16.128,7.122s10.316,4.628,10.316,10.316
		S21.817,27.755,16.128,27.755z M16.128,8.622c-4.861,0-8.816,3.955-8.816,8.816s3.955,8.816,8.816,8.816s8.816-3.955,8.816-8.816
		S20.99,8.622,16.128,8.622z"/>
	<path fill="#313131" d="M16.128,27.755c-2.915,0-5.199-4.531-5.199-10.316s2.284-10.316,5.199-10.316s5.199,4.531,5.199,10.316
		S19.043,27.755,16.128,27.755z M16.128,8.622c-1.75,0-3.699,3.621-3.699,8.816s1.949,8.816,3.699,8.816s3.699-3.621,3.699-8.816
		S17.878,8.622,16.128,8.622z"/>
	<path fill="#313131" d="M16.128,13.778c-3.015,0-5.854-0.634-7.79-1.738c-0.359-0.205-0.484-0.663-0.279-1.023
		c0.205-0.359,0.663-0.486,1.023-0.279c1.716,0.979,4.284,1.541,7.046,1.541c2.76,0,5.327-0.561,7.043-1.539
		c0.359-0.208,0.818-0.08,1.022,0.28c0.205,0.359,0.08,0.817-0.28,1.022C21.979,13.146,19.141,13.778,16.128,13.778z"/>
	<path fill="#313131" d="M23.541,24.235c-0.126,0-0.253-0.031-0.37-0.099c-1.717-0.978-4.283-1.538-7.042-1.538
		c-2.758,0-5.323,0.561-7.039,1.536c-0.362,0.207-0.819,0.079-1.022-0.28c-0.205-0.36-0.079-0.818,0.28-1.023
		c1.936-1.101,4.771-1.732,7.781-1.732c3.011,0,5.849,0.633,7.784,1.735c0.36,0.205,0.485,0.663,0.28,1.022
		C24.055,24.1,23.801,24.235,23.541,24.235z"/>
	<path fill="#313131" d="M16.128,27.755c-0.414,0-0.75-0.336-0.75-0.75V7.872c0-0.414,0.336-0.75,0.75-0.75s0.75,0.336,0.75,0.75
		v19.133C16.878,27.419,16.542,27.755,16.128,27.755z"/>
	<path fill="#313131" d="M25.695,18.188H6.562c-0.414,0-0.75-0.336-0.75-0.75s0.336-0.75,0.75-0.75h19.133
		c0.414,0,0.75,0.336,0.75,0.75S26.109,18.188,25.695,18.188z"/>
	<path fill="#313131" d="M31.138,20.561c-0.261,0-0.521-0.109-0.71-0.3c-0.181-0.18-0.29-0.439-0.29-0.7
		c0-0.27,0.109-0.529,0.29-0.71c0.369-0.37,1.05-0.37,1.42,0c0.18,0.181,0.29,0.44,0.29,0.71c0,0.261-0.11,0.521-0.29,0.7
		C31.658,20.451,31.398,20.561,31.138,20.561z"/>
</g>
</svg>
