<?xml version="1.0" encoding="utf-8"?>
<!-- Generator: Adobe Illustrator 16.0.0, SVG Export Plug-In . SVG Version: 6.00 Build 0)  -->
<!DOCTYPE svg PUBLIC "-//W3C//DTD SVG 1.1//EN" "http://www.w3.org/Graphics/SVG/1.1/DTD/svg11.dtd">
<svg version="1.1" id="_x3C_레이어_x3E_" xmlns="http://www.w3.org/2000/svg" xmlns:xlink="http://www.w3.org/1999/xlink"
	 x="0px" y="0px" width="47.9px" height="46px" viewBox="0 0 47.9 46" enable-background="new 0 0 47.9 46" xml:space="preserve">
<g>
	<g>
		<g>
			<g>
				<path fill="#C6C4CF" d="M35.329,15.654c-1.127-0.344-2.324-0.528-3.563-0.528c-6.753,0-12.228,5.475-12.228,12.227h24.454
					c0-2.568-0.791-4.951-2.145-6.919"/>
				<path fill="#313131" d="M43.992,28.362H19.538c-0.558,0-1.009-0.451-1.009-1.009c0-7.298,5.938-13.235,13.236-13.235
					c1.315,0,2.613,0.192,3.858,0.571c0.532,0.162,0.832,0.727,0.67,1.259s-0.723,0.83-1.259,0.671
					c-1.054-0.322-2.154-0.485-3.27-0.485c-5.847,0-10.663,4.495-11.174,10.21h22.348c-0.17-1.916-0.826-3.745-1.922-5.339
					c-0.315-0.459-0.199-1.087,0.26-1.402c0.46-0.315,1.086-0.199,1.402,0.26c1.519,2.21,2.321,4.8,2.321,7.49
					C45.001,27.911,44.55,28.362,43.992,28.362z"/>
			</g>
		</g>
		<path fill="#313131" d="M27.171,27.37c-2.332,0-4.229-1.625-4.229-3.62c0-1.995,1.897-3.619,4.229-3.619S31.4,21.755,31.4,23.75
			C31.4,25.745,29.503,27.37,27.171,27.37z M27.171,22.148c-1.199,0-2.213,0.734-2.213,1.603s1.014,1.602,2.213,1.602
			s2.212-0.733,2.212-1.602S28.37,22.148,27.171,22.148z"/>
		<path fill="#C6C4CF" d="M22.67,14.864v-0.551c0-3.537-2.868-6.406-6.406-6.406h-1.829v9.838c-3.083,1.51-5.089,4.878-4.527,8.653
			c0.536,3.613,3.526,6.495,7.155,6.916c4.989,0.579,9.222-3.305,9.222-8.178c0-1.89-0.638-3.631-1.708-5.02
			C23.404,18.595,22.67,16.784,22.67,14.864z"/>
		<path fill="#313131" d="M18.026,34.38c-0.359,0-0.72-0.021-1.08-0.063c-4.059-0.472-7.438-3.739-8.037-7.771
			c-0.566-3.811,1.235-7.511,4.518-9.405V7.907c0-0.557,0.451-1.008,1.008-1.008h1.829c4.089,0,7.414,3.326,7.414,7.415v0.551
			c0,1.592,0.587,3.195,1.697,4.637c1.255,1.628,1.917,3.577,1.917,5.636c0,2.634-1.129,5.151-3.098,6.905
			C22.496,33.554,20.294,34.38,18.026,34.38z M15.443,8.916v8.83c0,0.385-0.22,0.737-0.565,0.906
			c-2.845,1.394-4.442,4.448-3.974,7.598c0.467,3.146,3.106,5.695,6.274,6.064c2.104,0.244,4.113-0.389,5.674-1.777
			c1.54-1.373,2.423-3.34,2.423-5.399c0-1.61-0.518-3.132-1.498-4.405c-1.385-1.797-2.116-3.827-2.116-5.868v-0.551
			c0-2.976-2.422-5.397-5.397-5.397H15.443z"/>
		<path fill="#FDF7D7" d="M18.384,11.857c0-2.181-1.768-3.95-3.949-3.95h-0.168c-2.182,0-3.95,1.769-3.95,3.95v3.313
			c0,1.493-0.771,2.879-2.037,3.669l-1.718,1.069c-1.853,1.153-2.418,3.588-1.265,5.44l0.089,0.143
			c1.153,1.852,3.59,2.418,5.44,1.265l3.195-1.989l0,0c2.713-1.689,4.362-4.659,4.362-7.855V11.857z"/>
		<path fill="#FA8E9D" d="M8.742,24.833c-0.501,0-0.955-0.252-1.217-0.675l-0.093-0.147c-0.199-0.321-0.263-0.702-0.176-1.071
			c0.087-0.375,0.313-0.69,0.638-0.892l2.249-1.4c1.676-1.044,2.694-2.879,2.694-4.852v-3.938c0-0.789,0.64-1.429,1.429-1.429h0.167
			c0.79,0,1.43,0.64,1.43,1.429v5.618c0,1.976-1.02,3.811-2.697,4.854l-3.673,2.285C9.262,24.76,9.009,24.833,8.742,24.833z"/>
		<path fill="#313131" d="M22.184,23.826c-0.263,0-0.524-0.101-0.716-0.292c-0.182-0.191-0.293-0.443-0.293-0.716
			c0-0.262,0.111-0.524,0.293-0.716c0.373-0.374,1.06-0.374,1.433,0c0.19,0.192,0.291,0.454,0.291,0.716
			c0,0.262-0.101,0.525-0.291,0.716C22.708,23.726,22.446,23.826,22.184,23.826z"/>
		<path fill="#313131" d="M8.742,25.589c-0.764,0-1.459-0.386-1.859-1.031l-0.091-0.146c-0.309-0.495-0.405-1.079-0.271-1.645
			c0.132-0.569,0.479-1.054,0.976-1.362l2.247-1.4c1.465-0.912,2.338-2.486,2.338-4.21v-3.938c0-1.206,0.98-2.185,2.186-2.185h0.167
			c1.206,0,2.186,0.979,2.186,2.185v3.865c0,3.35-1.698,6.406-4.542,8.175l-2.185,1.359C9.541,25.477,9.153,25.589,8.742,25.589z
			 M14.267,11.185c-0.371,0-0.673,0.301-0.673,0.672v3.938c0,2.25-1.141,4.304-3.051,5.494l-2.248,1.4
			c-0.156,0.096-0.26,0.242-0.302,0.42c-0.041,0.176-0.013,0.349,0.082,0.5l0.092,0.146c0.191,0.312,0.604,0.418,0.926,0.217
			l2.185-1.36c2.398-1.492,3.829-4.068,3.829-6.892v-3.865c0-0.371-0.302-0.672-0.673-0.672H14.267z"/>
		<g>
			<path fill="#FDF7D7" d="M18.384,10.849h-2.521c-0.558,0-1.009,0.451-1.009,1.008c0,0.558,0.451,1.008,1.009,1.008h2.521"/>
			<path fill="#313131" d="M18.384,13.37h-2.521c-0.835,0-1.513-0.679-1.513-1.513s0.678-1.513,1.513-1.513h2.521
				c0.279,0,0.504,0.226,0.504,0.504s-0.225,0.504-0.504,0.504h-2.521c-0.278,0-0.505,0.227-0.505,0.504s0.227,0.504,0.505,0.504
				h2.521c0.279,0,0.504,0.226,0.504,0.504C18.888,13.144,18.663,13.37,18.384,13.37z"/>
		</g>
		<g>
			<path fill="#FDF7D7" d="M13.341,25.569V22.97c0-0.574-0.465-1.039-1.04-1.039c-0.574,0-1.039,0.464-1.039,1.039v2.599"/>
			<path fill="#313131" d="M13.341,26.073h-2.079c-0.278,0-0.504-0.225-0.504-0.504V22.97c0-0.851,0.692-1.543,1.543-1.543
				c0.852,0,1.544,0.692,1.544,1.543v2.599C13.845,25.849,13.619,26.073,13.341,26.073z M11.766,25.065h1.071V22.97
				c0-0.294-0.24-0.535-0.536-0.535c-0.294,0-0.535,0.24-0.535,0.535V25.065z"/>
		</g>
		<path fill="#313131" d="M18.048,14.249c-0.278,0-0.504-0.226-0.504-0.504v-3.483c0-0.279,0.226-0.504,0.504-0.504
			c0.279,0,0.505,0.226,0.505,0.504v3.483C18.553,14.023,18.327,14.249,18.048,14.249z"/>
		<path fill="#313131" d="M8.748,28.363c-0.377,0-0.756-0.044-1.132-0.13c-1.29-0.301-2.386-1.084-3.086-2.209L4.44,25.88
			c-0.699-1.122-0.92-2.452-0.621-3.742c0.3-1.29,1.085-2.385,2.209-3.085l1.061-0.661c1.39-0.866,2.219-2.359,2.219-3.997v-2.538
			c0-2.734,2.225-4.958,4.959-4.958h0.168c2.734,0,4.958,2.225,4.958,4.958v5.055c0,3.569-1.81,6.824-4.839,8.71l-3.194,1.99
			C10.563,28.108,9.663,28.363,8.748,28.363z M14.267,8.916c-1.622,0-2.941,1.319-2.941,2.941v2.538c0,2.339-1.185,4.473-3.17,5.708
			l-1.062,0.661c-0.666,0.416-1.132,1.065-1.31,1.831s-0.047,1.552,0.368,2.22l0.09,0.145c0.857,1.375,2.673,1.797,4.052,0.939
			l3.194-1.988c2.434-1.516,3.887-4.132,3.887-6.999v-5.055c0-1.622-1.319-2.941-2.94-2.941H14.267z"/>
		<g>
			<path fill="#FDF7D7" d="M13.026,10.849h-2.521c-0.558,0-1.009,0.451-1.009,1.008c0,0.558,0.451,1.008,1.009,1.008h2.521"/>
			<path fill="#313131" d="M13.026,13.37h-2.521c-0.834,0-1.513-0.679-1.513-1.513s0.679-1.513,1.513-1.513h2.521
				c0.279,0,0.505,0.226,0.505,0.504v2.017C13.531,13.144,13.306,13.37,13.026,13.37z M10.506,11.353
				c-0.278,0-0.505,0.227-0.505,0.504s0.227,0.504,0.505,0.504h2.017v-1.009H10.506z"/>
		</g>
		<g>
			<path fill="#FDF7D7" d="M9.104,21.679v-2.356c0-0.522-0.422-0.943-0.942-0.943c-0.521,0-0.942,0.421-0.942,0.943v2.356"/>
			<path fill="#313131" d="M7.22,22.997c-0.084,0-0.168-0.021-0.243-0.062c-0.161-0.089-0.262-0.258-0.262-0.442v-3.17
				c0-0.799,0.649-1.448,1.447-1.448c0.797,0,1.446,0.649,1.446,1.448v1.972c0,0.172-0.088,0.333-0.233,0.425L7.49,22.918
				C7.407,22.97,7.313,22.997,7.22,22.997z M8.162,18.883c-0.241,0-0.438,0.197-0.438,0.439v2.252L8.6,21.018v-1.695
				C8.6,19.081,8.403,18.883,8.162,18.883z"/>
		</g>
		<rect x="2.521" y="27.354" fill="#7EBFC5" width="41.472" height="11.748"/>
		<path fill="#313131" d="M46.892,28.362H1.008C0.451,28.362,0,27.911,0,27.354s0.451-1.009,1.008-1.009h45.884
			c0.558,0,1.009,0.451,1.009,1.009S47.449,28.362,46.892,28.362z"/>
		<g>
			<path fill="#FFFFFF" d="M12.983,32.714h-2.017c-0.418,0-0.757-0.339-0.757-0.756c0-0.418,0.339-0.757,0.757-0.757h2.017
				c0.417,0,0.756,0.339,0.756,0.757C13.739,32.375,13.4,32.714,12.983,32.714z M7.941,32.714H5.924
				c-0.417,0-0.756-0.339-0.756-0.756c0-0.418,0.339-0.757,0.756-0.757h2.018c0.417,0,0.756,0.339,0.756,0.757
				C8.697,32.375,8.358,32.714,7.941,32.714z"/>
			<path fill="#FFFFFF" d="M19.538,35.931h-1.053c-0.418,0-0.756-0.34-0.756-0.757s0.338-0.757,0.756-0.757h1.053
				c0.418,0,0.756,0.34,0.756,0.757S19.956,35.931,19.538,35.931z M15.46,35.931h-2.017c-0.418,0-0.757-0.34-0.757-0.757
				s0.339-0.757,0.757-0.757h2.017c0.418,0,0.757,0.34,0.757,0.757S15.878,35.931,15.46,35.931z"/>
			<path fill="#FFFFFF" d="M22.312,32.714h-2.018c-0.417,0-0.756-0.339-0.756-0.756c0-0.418,0.339-0.757,0.756-0.757h2.018
				c0.417,0,0.756,0.339,0.756,0.757C23.067,32.375,22.729,32.714,22.312,32.714z"/>
			<path fill="#FFFFFF" d="M33.404,34.128h-2.018c-0.417,0-0.756-0.338-0.756-0.756s0.339-0.757,0.756-0.757h2.018
				c0.417,0,0.756,0.339,0.756,0.757S33.821,34.128,33.404,34.128z"/>
			<path fill="#FFFFFF" d="M39.454,30.888h-2.017c-0.417,0-0.756-0.338-0.756-0.756s0.339-0.756,0.756-0.756h2.017
				c0.418,0,0.757,0.338,0.757,0.756S39.872,30.888,39.454,30.888z M34.412,30.888h-1.008c-0.418,0-0.757-0.338-0.757-0.756
				s0.339-0.756,0.757-0.756h1.008c0.418,0,0.757,0.338,0.757,0.756S34.83,30.888,34.412,30.888z"/>
			<path fill="#FFFFFF" d="M41.22,34.922h-2.018c-0.417,0-0.756-0.339-0.756-0.757c0-0.417,0.339-0.756,0.756-0.756h2.018
				c0.417,0,0.756,0.339,0.756,0.756C41.976,34.583,41.637,34.922,41.22,34.922z"/>
		</g>
	</g>
	<path fill="#313131" d="M38.833,18.744c-0.263,0-0.524-0.11-0.716-0.292c-0.183-0.191-0.292-0.454-0.292-0.716
		c0-0.262,0.109-0.524,0.292-0.716c0.373-0.373,1.059-0.373,1.432,0c0.191,0.192,0.293,0.454,0.293,0.716
		c0,0.262-0.102,0.525-0.293,0.716C39.357,18.633,39.104,18.744,38.833,18.744z"/>
</g>
</svg>
