<?xml version="1.0" encoding="utf-8"?>
<!-- Generator: Adobe Illustrator 16.0.0, SVG Export Plug-In . SVG Version: 6.00 Build 0)  -->
<!DOCTYPE svg PUBLIC "-//W3C//DTD SVG 1.1//EN" "http://www.w3.org/Graphics/SVG/1.1/DTD/svg11.dtd">
<svg version="1.1" id="_x3C_레이어_x3E_" xmlns="http://www.w3.org/2000/svg" xmlns:xlink="http://www.w3.org/1999/xlink"
	 x="0px" y="0px" width="41.452px" height="46px" viewBox="0 0 41.452 46" enable-background="new 0 0 41.452 46"
	 xml:space="preserve">
<g>
	<g>
		<path fill="#5D5D5D" d="M37.617,28.108H3.835C2.27,28.108,1,26.84,1,25.274V6.834C1,5.269,2.27,4,3.835,4h33.781
			c1.566,0,2.835,1.269,2.835,2.834v18.44C40.452,26.84,39.183,28.108,37.617,28.108z"/>
		<path fill="#313131" d="M37.617,29.109H3.835C1.721,29.109,0,27.389,0,25.274V6.834C0,4.72,1.721,3,3.835,3h33.781
			c2.114,0,3.835,1.72,3.835,3.834v3.433c0,0.553-0.447,1-1,1s-1-0.447-1-1V6.834C39.452,5.822,38.628,5,37.617,5H3.835
			C2.824,5,2,5.822,2,6.834v18.44c0,1.012,0.823,1.835,1.835,1.835h33.781c1.012,0,1.835-0.823,1.835-1.835v-7.849
			c0-0.553,0.447-1,1-1s1,0.447,1,1v7.849C41.452,27.389,39.731,29.109,37.617,29.109z"/>
		<rect x="4" y="7" fill="#F5F9F3" width="33.451" height="18.108"/>
		<path fill="#313131" d="M37.452,25.858H4c-0.414,0-0.75-0.336-0.75-0.75V7c0-0.414,0.336-0.75,0.75-0.75h33.451
			c0.414,0,0.75,0.336,0.75,0.75v18.108C38.202,25.522,37.866,25.858,37.452,25.858z M4.75,24.358h31.951V7.75H4.75V24.358z"/>
		<g>
			<g>
				<rect x="4.294" y="28.108" fill="#5D5D5D" width="3.855" height="13.892"/>
				<rect x="33.303" y="28.108" fill="#5D5D5D" width="3.855" height="13.892"/>
			</g>
			<g>
				<path fill="#313131" d="M8.15,43H4.294c-0.553,0-1-0.447-1-1V28.108c0-0.553,0.447-1,1-1H8.15c0.553,0,1,0.447,1,1V42
					C9.15,42.553,8.703,43,8.15,43z M5.294,41H7.15V29.108H5.294V41z"/>
				<path fill="#313131" d="M37.159,43h-3.855c-0.553,0-1-0.447-1-1V28.108c0-0.553,0.447-1,1-1h3.855c0.553,0,1,0.447,1,1V42
					C38.159,42.553,37.711,43,37.159,43z M34.303,41h1.855V29.108h-1.855V41z"/>
			</g>
		</g>
		<rect x="8.109" y="14.666" fill="#9E9E9E" width="7.235" height="6.834"/>
		<path fill="#9E9E9E" d="M35.231,12.666H6.222c-0.276,0-0.5-0.224-0.5-0.5s0.224-0.5,0.5-0.5h29.009c0.276,0,0.5,0.224,0.5,0.5
			S35.507,12.666,35.231,12.666z"/>
		<g>
			<path fill="#9E9E9E" d="M26.331,15.166h-7.986c-0.276,0-0.5-0.224-0.5-0.5s0.224-0.5,0.5-0.5h7.986c0.276,0,0.5,0.224,0.5,0.5
				S26.607,15.166,26.331,15.166z"/>
			<path fill="#9E9E9E" d="M33.344,17.444h-15c-0.276,0-0.5-0.224-0.5-0.5s0.224-0.5,0.5-0.5h15c0.276,0,0.5,0.224,0.5,0.5
				S33.621,17.444,33.344,17.444z"/>
			<path fill="#9E9E9E" d="M33.344,19.722h-15c-0.276,0-0.5-0.224-0.5-0.5s0.224-0.5,0.5-0.5h15c0.276,0,0.5,0.224,0.5,0.5
				S33.621,19.722,33.344,19.722z"/>
			<path fill="#9E9E9E" d="M33.344,22h-15c-0.276,0-0.5-0.224-0.5-0.5s0.224-0.5,0.5-0.5h15c0.276,0,0.5,0.224,0.5,0.5
				S33.621,22,33.344,22z"/>
		</g>
		<path fill="#9E9E9E" d="M28.344,10.166H12.677c-0.276,0-0.5-0.224-0.5-0.5s0.224-0.5,0.5-0.5h15.667c0.276,0,0.5,0.224,0.5,0.5
			S28.621,10.166,28.344,10.166z"/>
	</g>
	<path fill="#313131" d="M40.451,14.426c-0.261,0-0.521-0.11-0.71-0.301c-0.181-0.18-0.29-0.439-0.29-0.699
		c0-0.271,0.109-0.521,0.29-0.71c0.38-0.38,1.05-0.37,1.42,0c0.18,0.189,0.29,0.439,0.29,0.71c0,0.26-0.11,0.52-0.29,0.699
		C40.97,14.315,40.72,14.426,40.451,14.426z"/>
</g>
</svg>
